<?xml version="1.0" encoding="UTF-8" standalone="no"?>
<!DOCTYPE svg PUBLIC "-//W3C//DTD SVG 1.1//EN" "http://www.w3.org/Graphics/SVG/1.1/DTD/svg11.dtd">
<svg width="100%" height="100%" viewBox="0 0 1538 658" version="1.1" xmlns="http://www.w3.org/2000/svg" xmlns:xlink="http://www.w3.org/1999/xlink" xml:space="preserve" xmlns:serif="http://www.serif.com/" style="fill-rule:evenodd;clip-rule:evenodd;stroke-linejoin:round;stroke-miterlimit:2;">
    <g transform="matrix(14.7675,0,0,14.7675,-2009.57,-2136.43)">
        <g id="curves">
            <g>
                <path d="M145.592,145.34L145.592,161.057C145.592,162.463 145.149,163.638 144.263,164.582C143.82,165.044 143.295,165.41 142.688,165.68C142.082,165.949 141.374,166.084 140.565,166.084C139.621,166.084 138.836,165.877 138.21,165.463C137.584,165.049 137.088,164.64 136.722,164.235L139.033,162.386C139.245,162.598 139.491,162.776 139.77,162.921C140.05,163.065 140.343,163.137 140.651,163.137C140.825,163.137 141.027,163.104 141.258,163.036C141.489,162.969 141.711,162.839 141.923,162.646C142.135,162.473 142.308,162.227 142.443,161.909C142.578,161.592 142.645,161.173 142.645,160.653L142.645,145.34L145.592,145.34Z" style="fill:white;"/>
                <path d="M146.134,145.34L146.134,161.057C146.134,162.612 145.638,163.909 144.658,164.953C144.657,164.954 144.655,164.955 144.654,164.957C144.163,165.469 143.581,165.876 142.908,166.175C142.239,166.473 141.458,166.626 140.565,166.626C139.5,166.626 138.617,166.382 137.911,165.915C137.241,165.472 136.712,165.032 136.32,164.599C136.22,164.488 136.17,164.341 136.182,164.192C136.194,164.043 136.267,163.905 136.384,163.812L138.695,161.963C138.911,161.791 139.221,161.808 139.417,162.003C139.59,162.176 139.791,162.321 140.019,162.439C140.22,162.543 140.43,162.596 140.651,162.596C140.782,162.596 140.933,162.567 141.107,162.516C141.265,162.47 141.413,162.377 141.558,162.245C141.565,162.239 141.572,162.233 141.58,162.227C141.731,162.103 141.848,161.924 141.944,161.698C142.056,161.434 142.103,161.084 142.103,160.653L142.103,145.34C142.103,145.04 142.346,144.798 142.645,144.798L145.592,144.798C145.891,144.798 146.134,145.04 146.134,145.34ZM145.592,145.34L142.645,145.34L142.645,160.653C142.645,161.173 142.578,161.592 142.443,161.909C142.308,162.227 142.135,162.473 141.923,162.646C141.711,162.839 141.489,162.969 141.258,163.036C141.027,163.104 140.825,163.137 140.651,163.137C140.343,163.137 140.05,163.065 139.77,162.921C139.491,162.776 139.245,162.598 139.033,162.386L136.722,164.235C137.088,164.64 137.584,165.049 138.21,165.463C138.836,165.877 139.621,166.084 140.565,166.084C141.374,166.084 142.082,165.949 142.688,165.68C143.295,165.41 143.82,165.044 144.263,164.582C145.149,163.638 145.592,162.463 145.592,161.057L145.592,145.34Z"/>
                <path d="M148.166,165.911L148.166,148.298L155.686,148.298L155.686,150.673L150.689,150.673L150.689,155.843L155.043,155.843L155.043,158.218L150.689,158.218L150.689,163.388L155.686,163.388L155.686,165.911L148.166,165.911Z" style="fill:white;"/>
                <path d="M147.625,165.911L147.625,148.298C147.625,147.999 147.867,147.756 148.166,147.756L155.686,147.756C155.986,147.756 156.228,147.999 156.228,148.298L156.228,150.673C156.228,150.972 155.986,151.215 155.686,151.215L151.231,151.215C151.231,151.215 151.231,155.301 151.231,155.301L155.043,155.301C155.342,155.301 155.585,155.544 155.585,155.843L155.585,158.218C155.585,158.517 155.342,158.759 155.043,158.759L151.231,158.759C151.231,158.759 151.231,162.846 151.231,162.846L155.686,162.846C155.986,162.846 156.228,163.089 156.228,163.388L156.228,165.911C156.228,166.21 155.986,166.453 155.686,166.453L148.166,166.453C147.867,166.453 147.625,166.21 147.625,165.911ZM148.166,165.911L155.686,165.911L155.686,163.388L150.689,163.388L150.689,158.218L155.043,158.218L155.043,155.843L150.689,155.843L150.689,150.673L155.686,150.673L155.686,148.298L148.166,148.298L148.166,165.911Z"/>
                <path d="M159.842,150.673L159.842,156.165L161.277,156.165C161.722,156.165 162.077,156.103 162.341,155.979C162.604,155.855 162.811,155.678 162.959,155.447C163.091,155.216 163.182,154.932 163.231,154.594C163.281,154.256 163.305,153.864 163.305,153.419C163.305,152.973 163.281,152.582 163.231,152.244C163.182,151.906 163.083,151.613 162.934,151.366C162.621,150.904 162.027,150.673 161.153,150.673L159.842,150.673ZM157.319,165.911L157.319,148.298L161.376,148.298C164.344,148.298 165.829,150.021 165.829,153.468C165.829,154.507 165.668,155.389 165.346,156.115C165.025,156.841 164.46,157.426 163.652,157.871L166.373,165.911L163.701,165.911L161.351,158.391L159.842,158.391L159.842,165.911L157.319,165.911Z" style="fill:white;"/>
                <path d="M156.777,165.911L156.777,148.298C156.777,147.999 157.02,147.756 157.319,147.756L161.376,147.756C163.047,147.756 164.29,148.267 165.126,149.237C165.937,150.179 166.37,151.584 166.37,153.468C166.37,154.594 166.19,155.548 165.841,156.335C165.529,157.04 165.019,157.634 164.304,158.109L166.886,165.737C166.942,165.903 166.915,166.085 166.813,166.227C166.711,166.369 166.547,166.453 166.373,166.453L163.701,166.453C163.464,166.453 163.255,166.299 163.184,166.073L160.953,158.933L160.384,158.933L160.384,165.911C160.384,166.21 160.141,166.453 159.842,166.453L157.319,166.453C157.02,166.453 156.777,166.21 156.777,165.911ZM157.319,165.911L159.842,165.911L159.842,158.391L161.351,158.391L163.701,165.911L166.373,165.911L163.652,157.871C164.46,157.426 165.025,156.841 165.346,156.115C165.668,155.389 165.829,154.507 165.829,153.468C165.829,150.021 164.344,148.298 161.376,148.298L157.319,148.298L157.319,165.911ZM159.842,150.673L161.153,150.673C162.027,150.673 162.621,150.904 162.934,151.366C163.083,151.613 163.182,151.906 163.231,152.244C163.281,152.582 163.305,152.973 163.305,153.419C163.305,153.864 163.281,154.256 163.231,154.594C163.182,154.932 163.091,155.216 162.959,155.447C162.811,155.678 162.604,155.855 162.341,155.979C162.077,156.103 161.722,156.165 161.277,156.165L159.842,156.165L159.842,150.673ZM160.384,151.215L160.384,155.623L161.277,155.623C161.625,155.623 161.904,155.585 162.111,155.488C162.273,155.412 162.402,155.306 162.496,155.165C162.594,154.988 162.658,154.771 162.695,154.515C162.741,154.2 162.764,153.834 162.764,153.419C162.764,153.003 162.741,152.638 162.695,152.322C162.658,152.068 162.588,151.846 162.478,151.658C162.244,151.327 161.79,151.215 161.153,151.215L160.384,151.215Z"/>
                <path d="M167.857,165.911L167.857,148.298L175.377,148.298L175.377,150.673L170.38,150.673L170.38,155.843L174.734,155.843L174.734,158.218L170.38,158.218L170.38,163.388L175.377,163.388L175.377,165.911L167.857,165.911Z" style="fill:white;"/>
                <path d="M167.315,165.911L167.315,148.298C167.315,147.999 167.558,147.756 167.857,147.756L175.377,147.756C175.676,147.756 175.919,147.999 175.919,148.298L175.919,150.673C175.919,150.972 175.676,151.215 175.377,151.215L170.922,151.215C170.922,151.215 170.922,155.301 170.922,155.301L174.734,155.301C175.033,155.301 175.276,155.544 175.276,155.843L175.276,158.218C175.276,158.517 175.033,158.759 174.734,158.759L170.922,158.759C170.922,158.759 170.922,162.846 170.922,162.846L175.377,162.846C175.676,162.846 175.919,163.089 175.919,163.388L175.919,165.911C175.919,166.21 175.676,166.453 175.377,166.453L167.857,166.453C167.558,166.453 167.315,166.21 167.315,165.911ZM167.857,165.911L175.377,165.911L175.377,163.388L170.38,163.388L170.38,158.218L174.734,158.218L174.734,155.843L170.38,155.843L170.38,150.673L175.377,150.673L175.377,148.298L167.857,148.298L167.857,165.911Z"/>
                <path d="M177.01,165.911L177.01,148.298L179.434,148.298L182.674,157.624L182.724,157.624L185.94,148.298L188.389,148.298L188.389,165.911L185.866,165.911L185.866,155.2L185.816,155.2L183.318,162.769L182.056,162.769L179.582,155.2L179.533,155.2L179.533,165.911L177.01,165.911Z" style="fill:white;"/>
                <path d="M182.697,156.039L185.428,148.122C185.503,147.903 185.709,147.756 185.94,147.756L188.389,147.756C188.688,147.756 188.93,147.999 188.93,148.298L188.93,165.911C188.93,166.21 188.688,166.453 188.389,166.453L185.866,166.453C185.566,166.453 185.324,166.21 185.324,165.911L185.324,158.42L183.832,162.939C183.759,163.161 183.551,163.311 183.318,163.311L182.056,163.311C181.822,163.311 181.614,163.16 181.541,162.938L180.075,158.45L180.075,165.911C180.075,166.21 179.832,166.453 179.533,166.453L177.01,166.453C176.71,166.453 176.468,166.21 176.468,165.911L176.468,148.298C176.468,147.999 176.71,147.756 177.01,147.756L179.434,147.756C179.665,147.756 179.87,147.902 179.946,148.12L182.697,156.039ZM177.01,165.911L179.533,165.911L179.533,155.2L179.582,155.2L182.056,162.769L183.318,162.769L185.816,155.2L185.866,155.2L185.866,165.911L188.389,165.911L188.389,148.298L185.94,148.298L182.724,157.624L182.674,157.624L179.434,148.298L177.01,148.298L177.01,165.911Z"/>
                <rect x="190.838" y="148.298" width="2.523" height="17.613" style="fill:white;"/>
                <path d="M190.296,165.911L190.296,148.298C190.296,147.999 190.538,147.756 190.838,147.756L193.361,147.756C193.66,147.756 193.903,147.999 193.903,148.298L193.903,165.911C193.903,166.21 193.66,166.453 193.361,166.453L190.838,166.453C190.538,166.453 190.296,166.21 190.296,165.911ZM190.838,165.911L193.361,165.911L193.361,148.298L190.838,148.298L190.838,165.911Z"/>
                <path d="M200.906,159.751L199.669,153.369L199.619,153.369L198.382,159.751L200.906,159.751ZM194.672,165.911L198.605,148.298L200.708,148.298L204.641,165.911L202.118,165.911L201.376,162.126L197.937,162.126L197.195,165.911L194.672,165.911Z" style="fill:white;"/>
                <path d="M194.143,165.793L198.076,148.18C198.132,147.932 198.351,147.756 198.605,147.756L200.708,147.756C200.961,147.756 201.181,147.932 201.236,148.18L205.17,165.793C205.205,165.953 205.167,166.121 205.064,166.25C204.961,166.378 204.805,166.453 204.641,166.453L202.118,166.453C201.859,166.453 201.636,166.269 201.586,166.015L200.93,162.668L198.383,162.668L197.727,166.015C197.677,166.269 197.454,166.453 197.195,166.453L194.672,166.453C194.508,166.453 194.352,166.378 194.249,166.25C194.146,166.121 194.107,165.953 194.143,165.793ZM194.672,165.911L197.195,165.911L197.937,162.126L201.376,162.126L202.118,165.911L204.641,165.911L200.708,148.298L198.605,148.298L194.672,165.911ZM200.906,159.751L198.382,159.751L199.619,153.369L199.669,153.369L200.906,159.751ZM199.644,156.089L199.039,159.21L200.249,159.21L199.644,156.089Z"/>
                <path d="M205.878,165.911L205.878,148.298L208.401,148.298L208.401,155.843L211.518,155.843L211.518,148.298L214.041,148.298L214.041,165.911L211.518,165.911L211.518,158.069L208.401,158.069L208.401,165.911L205.878,165.911Z" style="fill:white;"/>
                <path d="M205.336,165.911L205.336,148.298C205.336,147.999 205.579,147.756 205.878,147.756L208.401,147.756C208.7,147.756 208.943,147.999 208.943,148.298L208.943,155.301L210.976,155.301L210.976,148.298C210.976,147.999 211.219,147.756 211.518,147.756L214.041,147.756C214.34,147.756 214.583,147.999 214.583,148.298L214.583,165.911C214.583,166.21 214.34,166.453 214.041,166.453L211.518,166.453C211.219,166.453 210.976,166.21 210.976,165.911L210.976,158.611L208.943,158.611L208.943,165.911C208.943,166.21 208.7,166.453 208.401,166.453L205.878,166.453C205.579,166.453 205.336,166.21 205.336,165.911ZM205.878,165.911L208.401,165.911L208.401,158.069L211.518,158.069L211.518,165.911L214.041,165.911L214.041,148.298L211.518,148.298L211.518,155.843L208.401,155.843L208.401,148.298L205.878,148.298L205.878,165.911Z"/>
                <g transform="matrix(1,0,0,1,-85.0028,22.2998)">
                    <path d="M233.073,145.34L228.855,165.911L226.255,165.911L222.066,145.34L225.186,145.34L227.526,159.699L227.584,159.699L229.953,145.34L233.073,145.34Z" style="fill:white;"/>
                    <path d="M227.558,156.528L229.419,145.251C229.462,144.99 229.688,144.798 229.953,144.798L233.073,144.798C233.236,144.798 233.39,144.871 233.493,144.997C233.596,145.123 233.637,145.289 233.604,145.448L229.386,166.02C229.334,166.272 229.112,166.453 228.855,166.453L226.255,166.453C225.997,166.453 225.775,166.271 225.724,166.019L221.535,145.448C221.502,145.288 221.543,145.123 221.646,144.997C221.749,144.871 221.903,144.798 222.066,144.798L225.186,144.798C225.451,144.798 225.678,144.99 225.721,145.252L227.558,156.528ZM233.073,145.34L229.953,145.34L227.584,159.699L227.526,159.699L225.186,145.34L222.066,145.34L226.255,165.911L228.855,165.911L233.073,145.34Z"/>
                </g>
                <g transform="matrix(1,0,0,1,-85.0028,22.2998)">
                    <path d="M237.999,159.751L236.762,153.369L236.712,153.369L235.476,159.751L237.999,159.751ZM231.765,165.911L235.698,148.298L237.801,148.298L241.734,165.911L239.211,165.911L238.469,162.126L235.03,162.126L234.288,165.911L231.765,165.911Z" style="fill:white;"/>
                    <path d="M231.236,165.793L235.169,148.18C235.225,147.932 235.444,147.756 235.698,147.756L237.801,147.756C238.055,147.756 238.274,147.932 238.33,148.18L242.263,165.793C242.299,165.953 242.26,166.121 242.157,166.25C242.054,166.378 241.898,166.453 241.734,166.453L239.211,166.453C238.952,166.453 238.729,166.269 238.679,166.015L238.023,162.668L235.476,162.668L234.82,166.015C234.77,166.269 234.547,166.453 234.288,166.453L231.765,166.453C231.601,166.453 231.445,166.378 231.342,166.25C231.239,166.121 231.2,165.953 231.236,165.793ZM231.765,165.911L234.288,165.911L235.03,162.126L238.469,162.126L239.211,165.911L241.734,165.911L237.801,148.298L235.698,148.298L231.765,165.911ZM237.999,159.751L235.476,159.751L236.712,153.369L236.762,153.369L237.999,159.751ZM236.737,156.089L236.132,159.21L237.342,159.21L236.737,156.089Z"/>
                </g>
                <g transform="matrix(1,0,0,1,-85.0028,22.2998)">
                    <path d="M242.872,165.911L242.872,148.298L245.296,148.298L249.106,158.91L249.155,158.91L249.155,148.298L251.678,148.298L251.678,165.911L249.304,165.911L245.445,155.323L245.395,155.323L245.395,165.911L242.872,165.911Z" style="fill:white;"/>
                    <path d="M248.613,155.936L248.613,148.298C248.613,147.999 248.856,147.756 249.155,147.756L251.678,147.756C251.978,147.756 252.22,147.999 252.22,148.298L252.22,165.911C252.22,166.21 251.978,166.453 251.678,166.453L249.304,166.453C249.076,166.453 248.873,166.31 248.795,166.096L245.937,158.256L245.937,165.911C245.937,166.21 245.694,166.453 245.395,166.453L242.872,166.453C242.573,166.453 242.33,166.21 242.33,165.911L242.33,148.298C242.33,147.999 242.573,147.756 242.872,147.756L245.296,147.756C245.525,147.756 245.729,147.9 245.806,148.115L248.613,155.936ZM242.872,165.911L245.395,165.911L245.395,155.323L245.445,155.323L249.304,165.911L251.678,165.911L251.678,148.298L249.155,148.298L249.155,158.91L249.106,158.91L245.296,148.298L242.872,148.298L242.872,165.911Z"/>
                </g>
                <g transform="matrix(1,0,0,1,-85.0028,22.2998)">
                    <path d="M253.954,165.911L253.954,148.298L257.689,148.298C259.141,148.298 260.241,148.694 260.992,149.486C261.742,150.277 262.117,151.399 262.117,152.85L262.117,161.087C262.117,162.736 261.717,163.953 260.918,164.736C260.118,165.519 258.968,165.911 257.467,165.911L253.954,165.911ZM256.477,150.673L256.477,163.536L257.64,163.536C258.349,163.536 258.852,163.359 259.149,163.004C259.446,162.65 259.594,162.093 259.594,161.335L259.594,152.85C259.594,152.157 259.454,151.621 259.174,151.242C258.893,150.863 258.382,150.673 257.64,150.673L256.477,150.673Z" style="fill:white;"/>
                    <path d="M253.412,165.911L253.412,148.298C253.412,147.999 253.655,147.756 253.954,147.756L257.689,147.756C259.317,147.756 260.543,148.225 261.385,149.113C262.22,149.994 262.659,151.235 262.659,152.85L262.659,161.087C262.659,162.916 262.184,164.254 261.297,165.123C260.407,165.994 259.136,166.453 257.467,166.453L253.954,166.453C253.655,166.453 253.412,166.21 253.412,165.911ZM253.954,165.911L257.467,165.911C258.968,165.911 260.118,165.519 260.918,164.736C261.717,163.953 262.117,162.736 262.117,161.087L262.117,152.85C262.117,151.399 261.742,150.277 260.992,149.486C260.241,148.694 259.141,148.298 257.689,148.298L253.954,148.298L253.954,165.911ZM256.477,150.673L257.64,150.673C258.382,150.673 258.893,150.863 259.174,151.242C259.454,151.621 259.594,152.157 259.594,152.85L259.594,161.335C259.594,162.093 259.446,162.65 259.149,163.004C258.852,163.359 258.349,163.536 257.64,163.536L256.477,163.536L256.477,150.673ZM257.019,151.215L257.019,162.994L257.64,162.994C258.147,162.994 258.521,162.91 258.734,162.657C258.967,162.378 259.052,161.932 259.052,161.335L259.052,152.85C259.052,152.298 258.961,151.866 258.738,151.564C258.541,151.297 258.163,151.215 257.64,151.215L257.019,151.215Z"/>
                </g>
                <g transform="matrix(1,0,0,1,-85.0028,22.2998)">
                    <path d="M264.492,165.911L264.492,148.298L272.012,148.298L272.012,150.673L267.015,150.673L267.015,155.843L271.369,155.843L271.369,158.218L267.015,158.218L267.015,163.388L272.012,163.388L272.012,165.911L264.492,165.911Z" style="fill:white;"/>
                    <path d="M263.95,165.911L263.95,148.298C263.95,147.999 264.193,147.756 264.492,147.756L272.012,147.756C272.311,147.756 272.554,147.999 272.554,148.298L272.554,150.673C272.554,150.972 272.311,151.215 272.012,151.215L267.557,151.215C267.557,151.215 267.557,155.301 267.557,155.301L271.369,155.301C271.668,155.301 271.911,155.544 271.911,155.843L271.911,158.218C271.911,158.517 271.668,158.759 271.369,158.759L267.557,158.759C267.557,158.759 267.557,162.846 267.557,162.846L272.012,162.846C272.311,162.846 272.554,163.089 272.554,163.388L272.554,165.911C272.554,166.21 272.311,166.453 272.012,166.453L264.492,166.453C264.193,166.453 263.95,166.21 263.95,165.911ZM264.492,165.911L272.012,165.911L272.012,163.388L267.015,163.388L267.015,158.218L271.369,158.218L271.369,155.843L267.015,155.843L267.015,150.673L272.012,150.673L272.012,148.298L264.492,148.298L264.492,165.911Z"/>
                </g>
                <g transform="matrix(1,0,0,1,-85.0028,22.2998)">
                    <path d="M276.168,150.673L276.168,156.165L277.603,156.165C278.048,156.165 278.403,156.103 278.666,155.979C278.93,155.855 279.136,155.678 279.285,155.447C279.417,155.216 279.508,154.932 279.557,154.594C279.606,154.256 279.631,153.864 279.631,153.419C279.631,152.973 279.606,152.582 279.557,152.244C279.508,151.906 279.409,151.613 279.26,151.366C278.947,150.904 278.353,150.673 277.479,150.673L276.168,150.673ZM273.645,165.911L273.645,148.298L277.702,148.298C280.67,148.298 282.154,150.021 282.154,153.468C282.154,154.507 281.994,155.389 281.672,156.115C281.35,156.841 280.786,157.426 279.978,157.871L282.699,165.911L280.027,165.911L277.677,158.391L276.168,158.391L276.168,165.911L273.645,165.911Z" style="fill:white;"/>
                    <path d="M273.103,165.911L273.103,148.298C273.103,147.999 273.346,147.756 273.645,147.756L277.702,147.756C279.373,147.756 280.616,148.267 281.452,149.237C282.263,150.179 282.696,151.584 282.696,153.468C282.696,154.594 282.516,155.548 282.167,156.335C281.854,157.04 281.345,157.634 280.63,158.109L283.212,165.737C283.268,165.903 283.241,166.085 283.139,166.227C283.037,166.369 282.873,166.453 282.699,166.453L280.027,166.453C279.79,166.453 279.581,166.299 279.51,166.073L277.279,158.933L276.71,158.933L276.71,165.911C276.71,166.21 276.467,166.453 276.168,166.453L273.645,166.453C273.346,166.453 273.103,166.21 273.103,165.911ZM273.645,165.911L276.168,165.911L276.168,158.391L277.677,158.391L280.027,165.911L282.699,165.911L279.978,157.871C280.786,157.426 281.35,156.841 281.672,156.115C281.994,155.389 282.154,154.507 282.154,153.468C282.154,150.021 280.67,148.298 277.702,148.298L273.645,148.298L273.645,165.911ZM276.168,150.673L277.479,150.673C278.353,150.673 278.947,150.904 279.26,151.366C279.409,151.613 279.508,151.906 279.557,152.244C279.606,152.582 279.631,152.973 279.631,153.419C279.631,153.864 279.606,154.256 279.557,154.594C279.508,154.932 279.417,155.216 279.285,155.447C279.136,155.678 278.93,155.855 278.666,155.979C278.403,156.103 278.048,156.165 277.603,156.165L276.168,156.165L276.168,150.673ZM276.71,151.215L276.71,155.623L277.603,155.623C277.951,155.623 278.23,155.585 278.437,155.488C278.599,155.412 278.728,155.306 278.822,155.165C278.92,154.988 278.984,154.771 279.021,154.515C279.067,154.2 279.089,153.834 279.089,153.419C279.089,153.003 279.067,152.638 279.021,152.322C278.984,152.068 278.913,151.846 278.803,151.658C278.57,151.327 278.116,151.215 277.479,151.215L276.71,151.215Z"/>
                </g>
                <g transform="matrix(1,0,0,1,-85.0028,22.2998)">
                    <path d="M293.743,160.046L293.743,161.317C293.743,161.953 293.623,162.555 293.382,163.123C293.141,163.691 292.809,164.197 292.385,164.64C291.962,165.083 291.466,165.434 290.897,165.694C290.329,165.954 289.718,166.084 289.063,166.084C288.504,166.084 287.936,166.007 287.358,165.853C286.78,165.699 286.26,165.429 285.798,165.044C285.336,164.659 284.955,164.163 284.657,163.556C284.358,162.949 284.209,162.174 284.209,161.23L284.209,149.905C284.209,149.23 284.324,148.604 284.556,148.027C284.787,147.449 285.114,146.948 285.538,146.524C285.962,146.1 286.467,145.768 287.055,145.527C287.642,145.287 288.292,145.166 289.005,145.166C290.392,145.166 291.519,145.619 292.385,146.524C292.809,146.967 293.141,147.492 293.382,148.099C293.623,148.706 293.743,149.365 293.743,150.078L293.743,151.234L290.796,151.234L290.796,150.251C290.796,149.673 290.633,149.173 290.305,148.749C289.978,148.325 289.535,148.113 288.976,148.113C288.244,148.113 287.758,148.34 287.517,148.792C287.276,149.245 287.156,149.818 287.156,150.511L287.156,161.028C287.156,161.625 287.286,162.126 287.546,162.531C287.806,162.935 288.273,163.137 288.947,163.137C289.14,163.137 289.347,163.104 289.568,163.036C289.79,162.969 289.997,162.858 290.19,162.704C290.363,162.55 290.507,162.338 290.623,162.068C290.739,161.799 290.796,161.462 290.796,161.057L290.796,160.046L293.743,160.046Z" style="fill:white;"/>
                    <path d="M294.285,160.046L294.285,161.317C294.285,162.027 294.15,162.699 293.881,163.334C293.614,163.964 293.246,164.523 292.777,165.014C292.306,165.507 291.755,165.898 291.123,166.187C290.485,166.479 289.798,166.626 289.063,166.626C288.459,166.626 287.844,166.543 287.219,166.377C286.564,166.202 285.975,165.897 285.451,165.46C284.933,165.029 284.505,164.475 284.171,163.795C283.841,163.126 283.667,162.272 283.667,161.23L283.667,149.905C283.667,149.158 283.797,148.465 284.053,147.825C284.312,147.177 284.68,146.616 285.155,146.141C285.628,145.668 286.193,145.295 286.849,145.026C287.499,144.76 288.217,144.625 289.005,144.625C290.554,144.625 291.809,145.139 292.777,146.15L292.777,146.15C293.248,146.642 293.618,147.225 293.886,147.899C294.151,148.567 294.285,149.293 294.285,150.078L294.285,151.234C294.285,151.533 294.043,151.775 293.743,151.775L290.796,151.775C290.497,151.775 290.255,151.533 290.255,151.234L290.255,150.251C290.255,149.801 290.131,149.41 289.877,149.08C289.655,148.794 289.354,148.655 288.976,148.655C288.496,148.655 288.153,148.75 287.995,149.047C287.79,149.432 287.698,149.921 287.698,150.511L287.698,161.028C287.698,161.508 287.793,161.913 288.002,162.238C288.174,162.505 288.501,162.596 288.947,162.596C289.091,162.596 289.245,162.568 289.411,162.518C289.563,162.471 289.706,162.395 289.84,162.29C289.955,162.183 290.047,162.036 290.125,161.855C290.216,161.642 290.255,161.376 290.255,161.057L290.255,160.046C290.255,159.747 290.497,159.504 290.796,159.504L293.743,159.504C294.043,159.504 294.285,159.747 294.285,160.046ZM293.743,160.046L290.796,160.046L290.796,161.057C290.796,161.462 290.739,161.799 290.623,162.068C290.507,162.338 290.363,162.55 290.19,162.704C289.997,162.858 289.79,162.969 289.568,163.036C289.347,163.104 289.14,163.137 288.947,163.137C288.273,163.137 287.806,162.935 287.546,162.531C287.286,162.126 287.156,161.625 287.156,161.028L287.156,150.511C287.156,149.818 287.276,149.245 287.517,148.792C287.758,148.34 288.244,148.113 288.976,148.113C289.535,148.113 289.978,148.325 290.305,148.749C290.633,149.173 290.796,149.673 290.796,150.251L290.796,151.234L293.743,151.234L293.743,150.078C293.743,149.365 293.623,148.706 293.382,148.099C293.141,147.492 292.809,146.967 292.385,146.524C291.519,145.619 290.392,145.166 289.005,145.166C288.292,145.166 287.642,145.287 287.055,145.527C286.467,145.768 285.962,146.1 285.538,146.524C285.114,146.948 284.787,147.449 284.556,148.027C284.324,148.604 284.209,149.23 284.209,149.905L284.209,161.23C284.209,162.174 284.358,162.949 284.657,163.556C284.955,164.163 285.336,164.659 285.798,165.044C286.26,165.429 286.78,165.699 287.358,165.853C287.936,166.007 288.504,166.084 289.063,166.084C289.718,166.084 290.329,165.954 290.897,165.694C291.466,165.434 291.962,165.083 292.385,164.64C292.809,164.197 293.141,163.691 293.382,163.123C293.623,162.555 293.743,161.953 293.743,161.317L293.743,160.046Z"/>
                </g>
                <g transform="matrix(1,0,0,1,-85.0028,22.2998)">
                    <path d="M295.942,165.911L295.942,148.298L298.465,148.298L298.465,155.843L301.582,155.843L301.582,148.298L304.105,148.298L304.105,165.911L301.582,165.911L301.582,158.069L298.465,158.069L298.465,165.911L295.942,165.911Z" style="fill:white;"/>
                    <path d="M295.4,165.911L295.4,148.298C295.4,147.999 295.643,147.756 295.942,147.756L298.465,147.756C298.764,147.756 299.007,147.999 299.007,148.298L299.007,155.301L301.04,155.301L301.04,148.298C301.04,147.999 301.283,147.756 301.582,147.756L304.105,147.756C304.404,147.756 304.647,147.999 304.647,148.298L304.647,165.911C304.647,166.21 304.404,166.453 304.105,166.453L301.582,166.453C301.283,166.453 301.04,166.21 301.04,165.911L301.04,158.611L299.007,158.611L299.007,165.911C299.007,166.21 298.764,166.453 298.465,166.453L295.942,166.453C295.643,166.453 295.4,166.21 295.4,165.911ZM295.942,165.911L298.465,165.911L298.465,158.069L301.582,158.069L301.582,165.911L304.105,165.911L304.105,148.298L301.582,148.298L301.582,155.843L298.465,155.843L298.465,148.298L295.942,148.298L295.942,165.911Z"/>
                </g>
                <g transform="matrix(1,0,0,1,-85.0028,22.2998)">
                    <path d="M306.332,152.454C306.332,151.745 306.455,151.118 306.703,150.574C306.95,150.03 307.28,149.576 307.692,149.213C308.088,148.867 308.537,148.603 309.04,148.422C309.543,148.24 310.05,148.15 310.562,148.15C311.073,148.15 311.58,148.24 312.083,148.422C312.586,148.603 313.044,148.867 313.456,149.213C313.852,149.576 314.173,150.03 314.421,150.574C314.668,151.118 314.792,151.745 314.792,152.454L314.792,161.755C314.792,162.497 314.668,163.132 314.421,163.66C314.173,164.188 313.852,164.625 313.456,164.971C313.044,165.334 312.586,165.606 312.083,165.787C311.58,165.969 311.073,166.059 310.562,166.059C310.05,166.059 309.543,165.969 309.04,165.787C308.537,165.606 308.088,165.334 307.692,164.971C307.28,164.625 306.95,164.188 306.703,163.66C306.455,163.132 306.332,162.497 306.332,161.755L306.332,152.454ZM308.855,161.755C308.855,162.365 309.024,162.815 309.362,163.103C309.7,163.392 310.1,163.536 310.562,163.536C311.023,163.536 311.423,163.392 311.761,163.103C312.099,162.815 312.268,162.365 312.268,161.755L312.268,152.454C312.268,151.844 312.099,151.394 311.761,151.106C311.423,150.817 311.023,150.673 310.562,150.673C310.1,150.673 309.7,150.817 309.362,151.106C309.024,151.394 308.855,151.844 308.855,152.454L308.855,161.755Z" style="fill:white;"/>
                    <path d="M305.79,152.454C305.79,151.66 305.932,150.959 306.209,150.35C306.49,149.732 306.866,149.219 307.334,148.807C307.335,148.806 307.335,148.806 307.335,148.806C307.782,148.415 308.289,148.117 308.856,147.912C309.42,147.709 309.989,147.608 310.562,147.608C311.135,147.608 311.703,147.709 312.267,147.912C312.83,148.115 313.343,148.411 313.804,148.799C313.81,148.804 313.816,148.809 313.822,148.814C314.269,149.224 314.634,149.735 314.914,150.35C315.191,150.959 315.333,151.66 315.333,152.454L315.333,161.755C315.333,162.587 315.188,163.298 314.911,163.89C314.63,164.489 314.263,164.984 313.813,165.378C313.349,165.787 312.833,166.093 312.267,166.297C311.703,166.5 311.135,166.601 310.562,166.601C309.989,166.601 309.42,166.5 308.856,166.297C308.289,166.092 307.782,165.786 307.336,165.379C306.869,164.985 306.493,164.489 306.212,163.89C305.935,163.298 305.79,162.587 305.79,161.755L305.79,152.454ZM306.332,152.454L306.332,161.755C306.332,162.497 306.455,163.132 306.703,163.66C306.95,164.188 307.28,164.625 307.692,164.971C308.088,165.334 308.537,165.606 309.04,165.787C309.543,165.969 310.05,166.059 310.562,166.059C311.073,166.059 311.58,165.969 312.083,165.787C312.586,165.606 313.044,165.334 313.456,164.971C313.852,164.625 314.173,164.188 314.421,163.66C314.668,163.132 314.792,162.497 314.792,161.755L314.792,152.454C314.792,151.745 314.668,151.118 314.421,150.574C314.173,150.03 313.852,149.576 313.456,149.213C313.044,148.867 312.586,148.603 312.083,148.422C311.58,148.24 311.073,148.15 310.562,148.15C310.05,148.15 309.543,148.24 309.04,148.422C308.537,148.603 308.088,148.867 307.692,149.213C307.28,149.576 306.95,150.03 306.703,150.574C306.455,151.118 306.332,151.745 306.332,152.454ZM308.855,161.755L308.855,152.454C308.855,151.844 309.024,151.394 309.362,151.106C309.7,150.817 310.1,150.673 310.562,150.673C311.023,150.673 311.423,150.817 311.761,151.106C312.099,151.394 312.268,151.844 312.268,152.454L312.268,161.755C312.268,162.365 312.099,162.815 311.761,163.103C311.423,163.392 311.023,163.536 310.562,163.536C310.1,163.536 309.7,163.392 309.362,163.103C309.024,162.815 308.855,162.365 308.855,161.755ZM309.396,161.755C309.396,162.174 309.482,162.493 309.714,162.691C309.952,162.895 310.236,162.994 310.562,162.994C310.888,162.994 311.171,162.895 311.41,162.691C311.642,162.493 311.727,162.174 311.727,161.755L311.727,152.454C311.727,152.035 311.642,151.716 311.41,151.518C311.171,151.314 310.888,151.215 310.562,151.215C310.236,151.215 309.952,151.314 309.714,151.518C309.482,151.716 309.396,152.035 309.396,152.454L309.396,161.755Z"/>
                </g>
                <g transform="matrix(1,0,0,1,-85.0028,22.2998)">
                    <path d="M325.181,148.298L325.181,161.953C325.181,162.53 325.078,163.062 324.872,163.549C324.666,164.035 324.373,164.468 323.994,164.847C323.614,165.227 323.177,165.523 322.683,165.738C322.188,165.952 321.66,166.059 321.1,166.059C320.539,166.059 320.015,165.952 319.529,165.738C319.042,165.523 318.609,165.227 318.23,164.847C317.851,164.468 317.554,164.035 317.34,163.549C317.125,163.062 317.018,162.53 317.018,161.953L317.018,148.298L319.541,148.298L319.541,161.706C319.541,162.332 319.69,162.794 319.986,163.091C320.283,163.388 320.654,163.536 321.1,163.536C321.545,163.536 321.916,163.388 322.213,163.091C322.51,162.794 322.658,162.332 322.658,161.706L322.658,148.298L325.181,148.298Z" style="fill:white;"/>
                    <path d="M325.723,148.298L325.723,161.953C325.723,162.607 325.604,163.209 325.371,163.76C325.137,164.311 324.806,164.801 324.377,165.23C323.949,165.658 323.456,165.993 322.898,166.235C322.336,166.478 321.737,166.601 321.1,166.601C320.461,166.601 319.865,166.478 319.31,166.233C318.762,165.992 318.274,165.658 317.847,165.23C317.42,164.803 317.085,164.315 316.844,163.767C316.6,163.214 316.476,162.609 316.476,161.953L316.476,148.298C316.476,147.999 316.719,147.756 317.018,147.756L319.541,147.756C319.84,147.756 320.083,147.999 320.083,148.298L320.083,161.706C320.083,162.155 320.157,162.495 320.369,162.708C320.564,162.902 320.808,162.994 321.1,162.994C321.391,162.994 321.635,162.902 321.83,162.708C322.042,162.495 322.116,162.155 322.116,161.706L322.116,148.298C322.116,147.999 322.359,147.756 322.658,147.756L325.181,147.756C325.48,147.756 325.723,147.999 325.723,148.298ZM325.181,148.298L322.658,148.298L322.658,161.706C322.658,162.332 322.51,162.794 322.213,163.091C321.916,163.388 321.545,163.536 321.1,163.536C320.654,163.536 320.283,163.388 319.986,163.091C319.69,162.794 319.541,162.332 319.541,161.706L319.541,148.298L317.018,148.298L317.018,161.953C317.018,162.53 317.125,163.062 317.34,163.549C317.554,164.035 317.851,164.468 318.23,164.847C318.609,165.227 319.042,165.523 319.529,165.738C320.015,165.952 320.539,166.059 321.1,166.059C321.66,166.059 322.188,165.952 322.683,165.738C323.177,165.523 323.614,165.227 323.994,164.847C324.373,164.468 324.666,164.035 324.872,163.549C325.078,163.062 325.181,162.53 325.181,161.953L325.181,148.298Z"/>
                </g>
            </g>
        </g>
    </g>
</svg>
